<?xml version="1.0" encoding="UTF-8"?>
<svg xmlns="http://www.w3.org/2000/svg" xmlns:xlink="http://www.w3.org/1999/xlink" width="228pt" height="264pt" viewBox="0 0 228 264">
<path fill-rule="nonzero" fill="rgb(91.992188%, 69.921875%, 86.914062%)" fill-opacity="1" d="M 96 186 C 77.140625 189 55.894531 184.1875 38.722656 171.277344 C 21.554688 158.363281 9.015625 137.679688 6 114 C 2.984375 90.320312 9.6875 64.574219 25.996094 43.996094 C 42.304688 23.417969 67.515625 9.023438 96 6 C 124.484375 2.976562 154.753906 11.570312 178.730469 31.269531 C 202.707031 50.96875 218.972656 80.71875 222 114 C 225.027344 147.28125 214.546875 182.089844 191.460938 209.460938 C 168.375 236.828125 134.070312 254.96875 96 258 C 70.800781 260.003906 44.738281 255.292969 21 243.902344 C 45.777344 240.566406 86.5 209.125 96 186 "/>
<path fill="none" stroke-width="100" stroke-linecap="butt" stroke-linejoin="miter" stroke="rgb(19.993591%, 59.959412%, 19.993591%)" stroke-opacity="1" stroke-miterlimit="10" d="M 960 780 C 771.40625 750 558.945312 798.125 387.226562 927.226562 C 215.546875 1056.367188 90.15625 1263.203125 60 1500 C 29.84375 1736.796875 96.875 1994.257812 259.960938 2200.039062 C 423.046875 2405.820312 675.15625 2549.765625 960 2580 C 1244.84375 2610.234375 1547.539062 2524.296875 1787.304688 2327.304688 C 2027.070312 2130.3125 2189.726562 1832.8125 2220 1500 C 2250.273438 1167.1875 2145.46875 819.101562 1914.609375 545.390625 C 1683.75 271.71875 1340.703125 90.3125 960 60 C 708.007812 39.960938 447.382812 87.070312 210 200.976562 C 457.773438 234.335938 865 548.75 960 780 Z M 960 780 " transform="matrix(0.1, 0, 0, -0.1, 0, 264)"/>
<path fill="none" stroke-width="100" stroke-linecap="butt" stroke-linejoin="miter" stroke="rgb(0%, 0%, 69.921875%)" stroke-opacity="1" stroke-miterlimit="10" d="M 522.851562 1215.351562 C 286.914062 1451.289062 308.164062 1855.039062 570.3125 2117.1875 C 832.460938 2379.335938 1236.210938 2400.585938 1472.148438 2164.648438 C 1708.085938 1928.710938 1686.835938 1524.960938 1424.6875 1262.8125 C 1162.539062 1000.664062 758.789062 979.414062 522.851562 1215.351562 " transform="matrix(0.1, 0, 0, -0.1, 0, 264)"/>
<path fill="none" stroke-width="100" stroke-linecap="butt" stroke-linejoin="miter" stroke="rgb(0%, 0%, 69.921875%)" stroke-opacity="1" stroke-miterlimit="10" d="M 1177.460938 1538.984375 L 1717.382812 1085.9375 " transform="matrix(0.1, 0, 0, -0.1, 0, 264)"/>
<path fill-rule="nonzero" fill="rgb(69.921875%, 0%, 0%)" fill-opacity="1" d="M 124.308594 128.121094 L 105.421875 124.792969 L 98.859375 106.769531 L 111.1875 92.078125 L 130.074219 95.410156 L 136.632812 113.433594 L 124.308594 128.121094 L 105.421875 124.792969 M 178.296875 173.425781 L 159.410156 170.097656 L 152.851562 152.074219 L 165.179688 137.382812 L 184.066406 140.714844 L 190.625 158.734375 L 178.296875 173.425781 L 159.410156 170.097656 "/>
</svg>
